<svg xmlns="http://www.w3.org/2000/svg" width="22.593" height="22.593" viewBox="0 0 22.593 22.593">
  <path id="Icon_awesome-arrow-alt-circle-right" data-name="Icon awesome-arrow-alt-circle-right" d="M11.859.563a11.3,11.3,0,1,1-11.3,11.3A11.294,11.294,0,0,1,11.859.563Zm-5.284,13.3h5.284v3.229a.547.547,0,0,0,.934.387L18,12.246a.542.542,0,0,0,0-.77L12.793,6.238a.547.547,0,0,0-.934.387V9.855H6.575a.548.548,0,0,0-.547.547v2.915A.548.548,0,0,0,6.575,13.863Z" transform="translate(23.155 -0.563) rotate(90)" fill="#fff"/>
</svg>
