<svg xmlns="http://www.w3.org/2000/svg" width="66.722" height="66.722" viewBox="0 0 66.722 66.722">
  <path id="Icon_awesome-arrow-alt-circle-right" data-name="Icon awesome-arrow-alt-circle-right" d="M33.361,0A33.361,33.361,0,1,1,0,33.361,33.355,33.355,0,0,1,33.361,0Zm-15.6,39.28h15.6v9.537a1.615,1.615,0,0,0,2.758,1.143L51.494,34.5a1.6,1.6,0,0,0,0-2.273L36.119,16.761A1.614,1.614,0,0,0,33.361,17.9v9.537h-15.6a1.619,1.619,0,0,0-1.614,1.614v8.609A1.619,1.619,0,0,0,17.757,39.28Z" transform="translate(66.722 66.722) rotate(180)" fill="#fff"/>
</svg>
