<?xml version="1.0" encoding="UTF-8" standalone="no"?>
<!-- Svg Vector Icons : http://www.onlinewebfonts.com/icon -->

<svg
   xmlns:dc="http://purl.org/dc/elements/1.1/"
   xmlns:cc="http://creativecommons.org/ns#"
   xmlns:rdf="http://www.w3.org/1999/02/22-rdf-syntax-ns#"
   xmlns:svg="http://www.w3.org/2000/svg"
   xmlns="http://www.w3.org/2000/svg"
   xmlns:sodipodi="http://sodipodi.sourceforge.net/DTD/sodipodi-0.dtd"
   xmlns:inkscape="http://www.inkscape.org/namespaces/inkscape"
   version="1.1"
   x="0px"
   y="0px"
   viewBox="0 0 1000 1000"
   enable-background="new 0 0 1000 1000"
   xml:space="preserve"
   id="svg892"
   sodipodi:docname="redo.svg"
   inkscape:version="0.92.5 (2060ec1f9f, 2020-04-08)"><defs
   id="defs896" /><sodipodi:namedview
   pagecolor="#ffffff"
   bordercolor="#666666"
   borderopacity="1"
   objecttolerance="10"
   gridtolerance="10"
   guidetolerance="10"
   inkscape:pageopacity="0"
   inkscape:pageshadow="2"
   inkscape:window-width="1858"
   inkscape:window-height="1016"
   id="namedview894"
   showgrid="false"
   inkscape:zoom="0.29627774"
   inkscape:cx="292.17921"
   inkscape:cy="575.90067"
   inkscape:window-x="62"
   inkscape:window-y="27"
   inkscape:window-maximized="1"
   inkscape:current-layer="svg892" />
<metadata
   id="metadata884"> Svg Vector Icons : http://www.onlinewebfonts.com/icon <rdf:RDF><cc:Work
     rdf:about=""><dc:format>image/svg+xml</dc:format><dc:type
       rdf:resource="http://purl.org/dc/dcmitype/StillImage" /><dc:title></dc:title></cc:Work></rdf:RDF></metadata>
<g
   id="g890"
   transform="matrix(-1,0,0,1,999.99415,0)"><g
     transform="matrix(0.1,0,0,-0.1,0,511)"
     id="g888"><path
       d="m 2585.9,4132.5 c -157,-69.2 -2219.8,-1623.6 -2331.6,-1754 -215.6,-250.2 -204.9,-535 29.3,-779.9 149.1,-157 2150.6,-1660.8 2299.6,-1730 135.7,-61.2 239.5,-63.9 338,-5.3 149.1,87.8 170.3,178.3 178.3,761.2 l 10.7,527 1692.8,-8 c 1666.2,-10.7 1698.1,-10.7 1889.8,-69.2 C 7949.1,691 8460.1,-536 7754.8,-1472.8 7515.3,-1792.2 7132,-2050.4 6698.1,-2183.5 l -199.6,-58.6 -2861.2,-16 -2861.3,-13.2 -149,-69.2 c -311.4,-146.4 -489.7,-425.9 -489.7,-769.2 0,-343.4 178.3,-622.8 489.7,-769.2 l 149,-69.2 2501.9,-8 c 2608.4,-8 2917.1,0 3433.5,103.8 1046,210.3 2030.8,795.8 2597.7,1549.1 207.6,274.1 431.2,734.6 521.7,1070 61.2,234.2 69.2,316.7 69.2,678.6 0,359.3 -8,444.5 -69.2,673.4 -133.1,503 -399.2,974.1 -771.9,1368.1 -713.3,750.5 -1724.7,1219 -2890.5,1338.8 -151.7,13.3 -889,26.6 -1666.2,26.6 h -1392 l -10.7,527 c -5.3,436.5 -16,540.3 -55.9,617.5 -87.7,178.3 -255.4,228.9 -457.7,135.7 z"
       id="path886"
       inkscape:connector-curvature="0" /></g></g>
</svg>