<?xml version="1.0" encoding="UTF-8"?>
<!-- Svg Vector Icons : http://www.onlinewebfonts.com/icon -->
<!DOCTYPE svg PUBLIC "-//W3C//DTD SVG 1.1//EN" "http://www.w3.org/Graphics/SVG/1.1/DTD/svg11.dtd">
<svg version="1.1" xmlns="http://www.w3.org/2000/svg" xmlns:xlink="http://www.w3.org/1999/xlink" x="0px" y="0px" viewBox="0 0 1000 1000" enable-background="new 0 0 1000 1000" xml:space="preserve">
<metadata> Svg Vector Icons : http://www.onlinewebfonts.com/icon </metadata>
<g><g transform="translate(0.000000,511.000000) scale(0.100000,-0.100000)"><path d="M2585.9,4132.5c-157-69.2-2219.8-1623.6-2331.6-1754c-215.6-250.2-204.9-535,29.3-779.9c149.1-157,2150.6-1660.8,2299.6-1730c135.7-61.2,239.5-63.9,338-5.3c149.1,87.8,170.3,178.3,178.3,761.2l10.7,527l1692.8-8c1666.2-10.7,1698.1-10.7,1889.8-69.2c1256.3-383.3,1767.3-1610.3,1062-2547.1c-239.5-319.4-622.8-577.6-1056.7-710.7l-199.6-58.6l-2861.2-16L776-2271.3l-149-69.2c-311.4-146.4-489.7-425.9-489.7-769.2c0-343.4,178.3-622.8,489.7-769.2l149-69.2l2501.9-8c2608.4-8,2917.1,0,3433.5,103.8c1046,210.3,2030.8,795.8,2597.7,1549.1c207.6,274.1,431.2,734.6,521.7,1070C9892-999,9900-916.5,9900-554.6c0,359.3-8,444.5-69.2,673.4c-133.1,503-399.2,974.1-771.9,1368.1c-713.3,750.5-1724.7,1219-2890.5,1338.8c-151.7,13.3-889,26.6-1666.2,26.6h-1392l-10.7,527c-5.3,436.5-16,540.3-55.9,617.5C2955.9,4175.1,2788.2,4225.7,2585.9,4132.5z"/></g></g>
</svg>