<?xml version="1.0" encoding="UTF-8" standalone="no"?>
<!DOCTYPE svg PUBLIC "-//W3C//DTD SVG 1.1//EN" "http://www.w3.org/Graphics/SVG/1.1/DTD/svg11.dtd">
<svg width="100%" height="100%" viewBox="0 0 64 64" version="1.1" xmlns="http://www.w3.org/2000/svg" xmlns:xlink="http://www.w3.org/1999/xlink" xml:space="preserve" xmlns:serif="http://www.serif.com/" style="fill-rule:evenodd;clip-rule:evenodd;stroke-linejoin:round;stroke-miterlimit:2;">
    <g transform="matrix(0.709813,-0.709813,0.94257,0.94257,-3.31091,7.82963)">
        <path d="M11.832,3.045C11.832,2.217 10.94,1.545 9.84,1.545L5.855,1.545C4.756,1.545 3.863,2.217 3.863,3.045L3.863,60.06C3.863,60.888 4.756,61.56 5.855,61.56L9.84,61.56C10.94,61.56 11.832,60.888 11.832,60.06L11.832,3.045Z" style="fill:rgb(46,46,46);"/>
    </g>
    <g transform="matrix(0.709813,0.709813,-0.94257,0.94257,56.1704,-3.31091)">
        <path d="M11.832,3.045C11.832,2.217 10.94,1.545 9.84,1.545L5.855,1.545C4.756,1.545 3.863,2.217 3.863,3.045L3.863,60.06C3.863,60.888 4.756,61.56 5.855,61.56L9.84,61.56C10.94,61.56 11.832,60.888 11.832,60.06L11.832,3.045Z" style="fill:rgb(46,46,46);"/>
    </g>
</svg>
