<svg xmlns="http://www.w3.org/2000/svg" viewBox="0 0 19.25 19.24"><g id="Ebene_2" data-name="Ebene 2"><g id="Ebene_1-2" data-name="Ebene 1"><path d="M9.63,19.24a9.62,9.62,0,1,1,9.62-9.49A9.63,9.63,0,0,1,9.63,19.24Zm-8.16-10a8.17,8.17,0,0,0,12.86,7.14,8.05,8.05,0,0,0,3.35-8h-.85v2.13l-.68.1v1.7H13.32V15.6H11.07V11l1-.05V9.61H14.8V7.92l.82-.06V6.21H13.24V4.55H9.58V4H8.33V1.54a7.89,7.89,0,0,0-4.57,2.4H6.27v-1H7.63V5.15l1.24.08v2.4l.92.06V12L8.71,12v2.69H6.9V12.87H4.49V11.23H3V10.07L2.32,10l-.09-.83Z"/></g></g></svg>