<svg xmlns="http://www.w3.org/2000/svg" width="21.195" height="24.728" viewBox="0 0 21.195 24.728">
  <path id="Icon_awesome-hand-pointer" data-name="Icon awesome-hand-pointer" d="M21.195,11.591v4.637a1.97,1.97,0,0,1-.05.442l-1.514,6.568a1.9,1.9,0,0,1-1.842,1.489H7.948a1.881,1.881,0,0,1-1.53-.8l-6.056-8.5a1.958,1.958,0,0,1,.417-2.7,1.867,1.867,0,0,1,2.644.426l1.5,2.1V1.932a1.893,1.893,0,1,1,3.785,0v9.659h.378V9.659a1.893,1.893,0,1,1,3.785,0v1.932h.378V10.432a1.893,1.893,0,1,1,3.785,0v1.159h.378a1.893,1.893,0,1,1,3.785,0ZM9.083,15.455H8.705v4.636h.378Zm4.163,0h-.378v4.636h.378Zm4.163,0h-.378v4.636h.378Z" transform="translate(0)" fill-opacity="0.5" fill="#ffffff"/>
</svg>
