<svg xmlns="http://www.w3.org/2000/svg" width="30.19" height="23.324" viewBox="0 0 30.19 23.324">
  <g id="Gruppe_628" data-name="Gruppe 628" transform="translate(-9.838 -32.302)">
    <path id="Icon_material-smartphone" data-name="Icon material-smartphone" d="M22.065,1.512,9.927,1.5A2.435,2.435,0,0,0,7.5,3.927V25.775A2.435,2.435,0,0,0,9.927,28.2H22.065a2.435,2.435,0,0,0,2.427-2.427V3.927a2.424,2.424,0,0,0-2.427-2.415Zm0,21.835H9.927V6.355H22.065Z" transform="matrix(-0.259, -0.966, 0.966, -0.259, 14.728, 63.259)" fill-opacity="0.5" fill="#ffffff"/>
    <path id="Pfad_224" data-name="Pfad 224" d="M8.965,6.8A3.447,3.447,0,0,0,3.277,5.514L1.5,7.184M9.926,8.716l-1.777,1.67A3.447,3.447,0,0,1,2.461,9.1" transform="translate(18.944 36)" fill="none" stroke="#ffffff" stroke-opacity="0.5" stroke-linecap="round" stroke-linejoin="round" stroke-width="1"/>
  </g>
</svg>
