<svg xmlns="http://www.w3.org/2000/svg" width="30.194" height="22.645" viewBox="0 0 30.194 22.645">
  <path id="Icon_open-eye" data-name="Icon open-eye" d="M15.21,0C5.661,0,0,11.323,0,11.323S5.661,22.645,15.21,22.645c9.322,0,14.984-11.323,14.984-11.323S24.532,0,15.21,0ZM15.1,3.774a7.548,7.548,0,1,1-7.548,7.548A7.546,7.546,0,0,1,15.1,3.774Zm0,3.774a3.774,3.774,0,1,0,3.774,3.774,4.779,4.779,0,0,0-.226-1.057,1.866,1.866,0,1,1-2.491-2.491A3.3,3.3,0,0,0,15.1,7.548Z" fill-opacity="0.5" fill="#ffffff"/>
</svg>
