<svg xmlns="http://www.w3.org/2000/svg" width="8.164" height="11.878" viewBox="0 0 8.164 11.878">
  <path id="Icon_awesome-question" data-name="Icon awesome-question" d="M5.893,0A4.5,4.5,0,0,0,1.9,2.112a.557.557,0,0,0,.12.763l1,.759a.557.557,0,0,0,.771-.1A2.251,2.251,0,0,1,5.712,2.39c.714,0,1.6.459,1.6,1.151,0,.523-.432.792-1.137,1.187C5.35,5.189,4.263,5.762,4.263,7.2v.227a.557.557,0,0,0,.557.557H6.5a.557.557,0,0,0,.557-.557V7.29c0-.994,2.906-1.036,2.906-3.726C9.964,1.537,7.862,0,5.893,0ZM5.66,8.664a1.607,1.607,0,1,0,1.607,1.607A1.609,1.609,0,0,0,5.66,8.664Z" transform="translate(-1.8)" fill-opacity="0.5" fill="#ffffff"/>
</svg>
