<svg xmlns="http://www.w3.org/2000/svg" width="36" height="31.5" viewBox="0 0 36 31.5">
  <path id="Icon_awesome-eraser" data-name="Icon awesome-eraser" d="M35.011,19.261a3.375,3.375,0,0,0,0-4.773L23.761,3.239a3.375,3.375,0,0,0-4.773,0l-18,18a3.375,3.375,0,0,0,0,4.773l6.75,6.75a3.375,3.375,0,0,0,2.387.989H35.156A.844.844,0,0,0,36,32.906V30.094a.844.844,0,0,0-.844-.844H25.023l9.988-9.989Zm-21.278-4.4,9.659,9.659L18.659,29.25H10.591L4.966,23.625l8.767-8.767Z" transform="translate(0 -2.25)" fill="#464646"/>
</svg>
