<?xml version="1.0" encoding="UTF-8" standalone="no"?>
<svg
   xmlns:dc="http://purl.org/dc/elements/1.1/"
   xmlns:cc="http://creativecommons.org/ns#"
   xmlns:rdf="http://www.w3.org/1999/02/22-rdf-syntax-ns#"
   xmlns:svg="http://www.w3.org/2000/svg"
   xmlns="http://www.w3.org/2000/svg"
   xmlns:sodipodi="http://sodipodi.sourceforge.net/DTD/sodipodi-0.dtd"
   xmlns:inkscape="http://www.inkscape.org/namespaces/inkscape"
   width="21.195"
   height="24.728"
   viewBox="0 0 21.195 24.728"
   version="1.1"
   id="svg3778"
   sodipodi:docname="hand-pointer.svg"
   inkscape:version="0.92.5 (2060ec1f9f, 2020-04-08)">
  <metadata
     id="metadata3784">
    <rdf:RDF>
      <cc:Work
         rdf:about="">
        <dc:format>image/svg+xml</dc:format>
        <dc:type
           rdf:resource="http://purl.org/dc/dcmitype/StillImage" />
        <dc:title />
      </cc:Work>
    </rdf:RDF>
  </metadata>
  <defs
     id="defs3782" />
  <sodipodi:namedview
     pagecolor="#ffffff"
     bordercolor="#666666"
     borderopacity="1"
     objecttolerance="10"
     gridtolerance="10"
     guidetolerance="10"
     inkscape:pageopacity="0"
     inkscape:pageshadow="2"
     inkscape:window-width="1858"
     inkscape:window-height="1016"
     id="namedview3780"
     showgrid="false"
     inkscape:zoom="33.888708"
     inkscape:cx="5.3155046"
     inkscape:cy="12.364"
     inkscape:window-x="62"
     inkscape:window-y="27"
     inkscape:window-maximized="1"
     inkscape:current-layer="svg3778" />
  <path
     id="Icon_awesome-hand-pointer"
     data-name="Icon awesome-hand-pointer"
     d="M21.195,11.591v4.637a1.97,1.97,0,0,1-.05.442l-1.514,6.568a1.9,1.9,0,0,1-1.842,1.489H7.948a1.881,1.881,0,0,1-1.53-.8l-6.056-8.5a1.958,1.958,0,0,1,.417-2.7,1.867,1.867,0,0,1,2.644.426l1.5,2.1V1.932a1.893,1.893,0,1,1,3.785,0v9.659h.378V9.659a1.893,1.893,0,1,1,3.785,0v1.932h.378V10.432a1.893,1.893,0,1,1,3.785,0v1.159h.378a1.893,1.893,0,1,1,3.785,0ZM9.083,15.455H8.705v4.636h.378Zm4.163,0h-.378v4.636h.378Zm4.163,0h-.378v4.636h.378Z"
     transform="translate(0)"
     fill="#795800" />
  <path
     style="fill:#000000;stroke-width:0.02950835"
     d="M 7.5846969,24.672774 C 7.1916002,24.585694 6.9014177,24.423528 6.6223569,24.13498 6.4216263,23.927424 0.34870877,15.405781 0.22043244,15.151667 0.02797815,14.770417 -0.03043362,14.304321 0.06004752,13.871877 0.20239175,13.19156 0.7716387,12.597776 1.4457819,12.426411 c 0.2255976,-0.05735 0.6620077,-0.05735 0.8876054,0 0.2849933,0.07245 0.5880141,0.237683 0.8006634,0.436606 0.1369512,0.128112 0.424115,0.50362 0.9742316,1.27395 0.4290226,0.600762 0.7923622,1.096675 0.8074212,1.102028 0.01677,0.006 0.030359,-2.652617 0.035065,-6.8606922 l 0.00768,-6.8704259 0.065612,-0.1918043 C 5.215184,0.75737918 5.6359097,0.32838422 6.2054307,0.11148804 6.3808048,0.04469867 6.4497909,0.03553332 6.7879713,0.034093 7.1054818,0.03274072 7.2071712,0.04373612 7.3781384,0.09790626 7.6586882,0.18679708 7.9245741,0.35055323 8.1414437,0.56801734 8.355245,0.78240447 8.4890341,0.99465473 8.5974469,1.2914448 l 0.079059,0.2164321 0.00787,5.0533056 0.00787,5.0533055 h 0.204521 0.2045209 l 0.00965,-1.187711 C 9.1201378,9.2948636 9.1236348,9.2300547 9.1854708,9.0472613 9.342102,8.5842428 9.6847229,8.1772825 10.099648,7.9614147 10.39393,7.8083127 10.636944,7.749766 10.978157,7.749766 c 0.341212,0 0.584226,0.058547 0.878508,0.2116487 0.414925,0.2158678 0.757546,0.6228281 0.914177,1.0858466 0.06184,0.1827934 0.06534,0.2476023 0.07453,1.3795157 l 0.0097,1.187711 h 0.205014 0.205015 l 5.13e-4,-0.715577 c 5.85e-4,-0.817289 0.02598,-0.9929707 0.194324,-1.3445359 0.08478,-0.1770463 0.164308,-0.2824965 0.36262,-0.4808085 0.284483,-0.2844827 0.538508,-0.4292112 0.904023,-0.5150586 0.268944,-0.063166 0.719772,-0.043988 0.987715,0.042017 0.549114,0.1762555 0.98496,0.6021292 1.204885,1.1773178 0.07389,0.1932523 0.07638,0.2223112 0.0872,1.0177882 l 0.01114,0.818857 h 0.204127 0.204127 v -0.142821 c 0,-0.411316 0.223087,-0.907092 0.561055,-1.246859 0.512649,-0.5153756 1.238226,-0.6840695 1.924641,-0.4474715 0.135539,0.046718 0.321156,0.1345392 0.412483,0.1951585 0.249974,0.165924 0.5317,0.481106 0.654464,0.732184 0.205272,0.419825 0.197411,0.283837 0.187585,3.244648 l -0.0089,2.666827 -0.785721,3.378707 c -0.432148,1.858288 -0.813741,3.449292 -0.847986,3.535564 -0.200289,0.504583 -0.618801,0.896778 -1.157765,1.084963 l -0.246461,0.08606 -5.178715,0.0053 c -4.2139774,0.0043 -5.2116991,-0.002 -5.3557666,-0.03394 z m 1.5196802,-6.89104 v -2.33116 H 8.8978187 8.6912602 v 2.33116 2.33116 h 0.2065585 0.2065584 z m 4.1606779,0 v -2.33116 h -0.206558 -0.206559 v 2.33116 2.33116 h 0.206559 0.206558 z m 4.160678,0 v -2.33116 h -0.206559 -0.206558 v 2.33116 2.33116 h 0.206558 0.206559 z"
     id="path3805"
     inkscape:connector-curvature="0" />
  <path
     style="fill:#2e2e2e;stroke-width:0.02950835;fill-opacity:1"
     d="M 7.5203346,24.642349 C 7.2162374,24.576244 6.9620138,24.432012 6.7142965,24.185047 6.4914742,23.962902 6.1937614,23.559378 4.3630581,20.998145 1.3153858,16.73432 0.24358607,15.200882 0.16587575,14.993183 0.07026999,14.737654 0.03999958,14.573037 0.03836445,14.299749 0.03636219,13.965101 0.08525406,13.74491 0.22766269,13.44722 0.32171097,13.250623 0.39567581,13.149823 0.58669838,12.957923 0.84513405,12.698301 1.0397331,12.572507 1.3436801,12.46859 c 0.1563771,-0.05346 0.2572083,-0.06558 0.5459046,-0.06558 0.4085456,0 0.6041923,0.05157 0.9349207,0.246411 0.2726027,0.160601 0.4925134,0.41228 1.1326078,1.296224 0.8877343,1.225924 0.9411256,1.296615 0.9628794,1.274861 0.01145,-0.01145 0.029259,-3.101476 0.039575,-6.8667247 C 4.9761116,2.3157974 4.9836758,1.490465 5.0236622,1.3603353 5.1972174,0.79553111 5.6734504,0.30797468 6.2403607,0.11470742 6.3979755,0.06097451 6.4995559,0.04866085 6.7879715,0.04832562 c 0.39439,-4.5841e-4 0.5786921,0.03700883 0.8544043,0.17369392 0.4115356,0.20402014 0.7573977,0.5898671 0.9300523,1.03757486 l 0.089324,0.2316247 v 2.5780543 c 0,1.4179295 0.00883,3.6956652 0.019614,5.0616347 l 0.019614,2.4835799 h 0.1969915 0.1969913 l 0.019461,-0.668706 c 0.010704,-0.367789 0.019461,-0.88951 0.019461,-1.1593807 0,-0.3467638 0.013337,-0.5418778 0.045474,-0.665259 0.1552124,-0.5959009 0.7076165,-1.1430439 1.3155791,-1.3030506 0.24864,-0.065438 0.717798,-0.065438 0.966437,0 0.42425,0.1116561 0.806246,0.3891347 1.061881,0.7713401 0.272048,0.4067458 0.27709,0.4314198 0.301577,1.4758682 0.0118,0.503117 0.02272,1.057505 0.02428,1.231974 l 0.0028,0.317214 h 0.201888 0.201888 l 0.01842,-0.75984 c 0.01309,-0.539764 0.03172,-0.81112 0.06433,-0.9368899 0.07645,-0.2948587 0.213174,-0.5367756 0.435899,-0.7712472 0.412402,-0.434152 0.786326,-0.6012253 1.343867,-0.6004552 0.57486,7.938e-4 0.954507,0.1494575 1.318975,0.5164889 0.381538,0.3842209 0.54383,0.7529644 0.545233,1.2388224 4.69e-4,0.162296 0.0095,0.524142 0.02016,0.804102 l 0.01931,0.509019 h 0.198102 0.198101 l 0.02069,-0.210021 c 0.04432,-0.449755 0.229292,-0.826871 0.577097,-1.176553 0.36028,-0.3622252 0.76904,-0.5314686 1.283614,-0.5314686 0.32651,0 0.544737,0.052435 0.859617,0.2065458 0.441969,0.2163118 0.870431,0.7581458 0.956709,1.2098548 0.02035,0.106519 0.03025,1.082574 0.02881,2.84006 l -0.0022,2.677764 -0.454605,1.955048 c -1.050211,4.516475 -1.157522,4.947688 -1.289358,5.181094 -0.204018,0.3612 -0.642058,0.702523 -1.106785,0.862413 -0.16316,0.05613 -0.287555,0.05741 -5.378006,0.05512 -4.2455631,-0.0019 -5.2447732,-0.0097 -5.3933773,-0.04199 z m 1.5840427,-6.860615 v -2.33116 H 8.8978188 8.6912603 v 2.33116 2.33116 h 0.2065585 0.2065585 z m 4.1606777,0 v -2.33116 h -0.206558 -0.206559 v 2.33116 2.33116 h 0.206559 0.206558 z m 4.160678,0 v -2.33116 h -0.206558 -0.206559 v 2.33116 2.33116 h 0.206559 0.206558 z"
     id="path8"
     inkscape:connector-curvature="0" />
</svg>
