<svg xmlns="http://www.w3.org/2000/svg" width="400" height="400" viewBox="0 0 400 400">
  <defs>
    <style>
      .cls-1 {
        fill-rule: evenodd;
      }
    </style>
  </defs>
  <path id="Farbfüllung_1" data-name="Farbfüllung 1" class="cls-1" d="M161.667,315.686V269.464H138.556V246.353H115.445V223.241H92.334V177.019h23.111V153.908h23.111V130.8h23.111V84.574H115.445v23.111H92.334V130.8H69.223v23.112H46.111v23.111H23v46.222H46.111v23.112H69.223v23.111H92.334v23.111h23.111v23.111h46.222Zm123.877,0V292.575h23.111V269.464h23.111V246.353h23.112V223.241h23.111V177.019H354.878V153.908H331.766V130.8H308.655V107.685H285.544V84.574H239.321V130.8h23.112v23.112h23.111v23.111h23.111v46.222H285.544v23.112H262.433v23.111H239.321v46.222h46.223Z"/>
</svg>
