<svg xmlns="http://www.w3.org/2000/svg" width="26.1" height="22.837" viewBox="0 0 26.1 22.837">
    <path id="Icon_awesome-eraser" data-name="Icon awesome-eraser"
          d="M25.383,14.583a2.447,2.447,0,0,0,0-3.46L17.227,2.967a2.447,2.447,0,0,0-3.46,0L.717,16.017a2.447,2.447,0,0,0,0,3.46L5.61,24.371a2.447,2.447,0,0,0,1.73.717H25.488a.612.612,0,0,0,.612-.612V22.437a.612.612,0,0,0-.612-.612H18.142l7.242-7.242ZM9.956,11.391l7,7-3.431,3.431H7.678L3.6,17.747l6.356-6.356Z"
          transform="translate(0 -2.25)" fill-opacity="0.5" fill="#000000"/>
</svg>
