<svg xmlns="http://www.w3.org/2000/svg" width="16.355" height="27.048" viewBox="0 0 16.355 27.048">
    <path id="Icon_material-directions-walk" data-name="Icon material-directions-walk"
          d="M18.435,7.282a2.516,2.516,0,1,0-2.516-2.516A2.524,2.524,0,0,0,18.435,7.282ZM13.781,11.56,10.258,29.3H12.9l2.265-10.065,2.642,2.516V29.3h2.516V19.863l-2.642-2.516.755-3.774a9.212,9.212,0,0,0,6.919,3.145V14.2a6.189,6.189,0,0,1-5.41-3.019L18.687,9.169a2.6,2.6,0,0,0-2.139-1.258c-.377,0-.629.126-1.006.126L9,10.8v5.913h2.516V12.44l2.265-.881"
          transform="translate(-9 -2.25)" fill-opacity="0.5" fill="#000000"/>
</svg>
