<svg xmlns="http://www.w3.org/2000/svg" width="37.44" height="27.048" viewBox="0 0 37.44 27.048">
  <path id="Icon_material-directions-walk" data-name="Icon material-directions-walk" d="M18.435,7.282a2.516,2.516,0,1,0-2.516-2.516A2.524,2.524,0,0,0,18.435,7.282ZM13.781,11.56,10.258,29.3H12.9l2.265-10.065,2.642,2.516V29.3h2.516V19.863l-2.642-2.516.755-3.774a9.212,9.212,0,0,0,6.919,3.145V14.2a6.189,6.189,0,0,1-5.41-3.019L18.687,9.169a2.6,2.6,0,0,0-2.139-1.258c-.377,0-.629.126-1.006.126L9,10.8v5.913h2.516V12.44l2.265-.881" transform="translate(-9 -2.25)" fill="#00647b"/>
  <path id="Icon_awesome-random" data-name="Icon awesome-random" d="M17.338,13.478a.824.824,0,0,1,0,1.165L14.591,17.39a.825.825,0,0,1-1.407-.583V15.434H11.166a.412.412,0,0,1-.3-.131l-2.422-2.6,1.831-1.962,1.812,1.942h1.1V11.315a.825.825,0,0,1,1.407-.583l2.747,2.746ZM.412,7.194H3.3L5.108,9.136,6.939,7.174l-2.422-2.6a.412.412,0,0,0-.3-.131H.412A.412.412,0,0,0,0,4.859V6.782A.412.412,0,0,0,.412,7.194Zm12.772,0V8.567a.825.825,0,0,0,1.407.583L17.338,6.4a.824.824,0,0,0,0-1.165L14.591,2.492a.825.825,0,0,0-1.407.583V4.447H11.166a.412.412,0,0,0-.3.131L3.3,12.688H.412A.412.412,0,0,0,0,13.1v1.923a.412.412,0,0,0,.412.412h3.8a.412.412,0,0,0,.3-.131l7.569-8.109Z" transform="translate(19.861 3.583)" fill="#00647b"/>
</svg>
