<svg xmlns="http://www.w3.org/2000/svg" width="27.265" height="27.265" viewBox="0 0 27.265 27.265">
  <path id="Icon_metro-magic-wand" data-name="Icon metro-magic-wand" d="M9.387,7.04,5.979,3.632h-1.7v1.7L7.683,8.744Zm1.7-5.112h1.7V5.336h-1.7Zm6.816,8.52h3.408v1.7H17.907Zm1.7-5.112v-1.7h-1.7L14.5,7.04l1.7,1.7ZM2.571,10.448H5.979v1.7H2.571Zm8.52,6.816h1.7v3.408h-1.7Zm-6.816,0v1.7h1.7l3.408-3.408-1.7-1.7Zm25.188,8.148L12.526,8.475a1.282,1.282,0,0,0-1.807,0l-1.6,1.6a1.282,1.282,0,0,0,0,1.807L26.055,28.821a1.282,1.282,0,0,0,1.807,0l1.6-1.6A1.282,1.282,0,0,0,29.463,25.412Zm-14.112-9L10.239,11.3l1.7-1.7,5.112,5.112Z" transform="translate(-2.571 -1.928)" fill="#00647b"/>
</svg>
