<svg xmlns="http://www.w3.org/2000/svg" width="23.296" height="23.296" viewBox="0 0 23.296 23.296">
  <path id="Icon_awesome-music" data-name="Icon awesome-music" d="M23.3,1.456A1.455,1.455,0,0,0,21.4.068L6.843,4.368A1.456,1.456,0,0,0,5.824,5.755V17.65a6.294,6.294,0,0,0-1.456-.178C1.956,17.472,0,18.775,0,20.383S1.956,23.3,4.368,23.3s4.368-1.3,4.368-2.912V9.751L20.384,6.337v8.4a6.294,6.294,0,0,0-1.456-.178c-2.412,0-4.368,1.3-4.368,2.912s1.956,2.912,4.368,2.912,4.368-1.3,4.368-2.912V1.456Z" transform="translate(0 0.001)" fill-opacity="0.5" fill="#000000"/>
</svg>
